PathFileType	3	(X/Y/Z)	D:\Jess\PFP\Labelled\PA24\20251014\SRRun01.trc
DataRate	CameraRate	NumFrames	NumMarkers	Units	OrigDataRate	OrigDataStartFrame	OrigNumFrames
250.0	250.0	6	33	mm	250.0	36250	2501
Frame#	Time	C7			T10			CLAV			LSHO			RSHO			LASIS			RASIS			LPSIS			RPSIS			LILCR			RILCR			LGTR			LTHI			LLTHI			LLEP			LPSH			LLSH			LDSH			LLMAL			LTOE			L5TH			LHEE			RGTR			RTHI			RLTHI			RLEP			RPSH			RLSH			RDSH			RLMAL			RTOE			R5TH			RHEE			
		X1	Y1	Z1	X2	Y2	Z2	X3	Y3	Z3	X4	Y4	Z4	X5	Y5	Z5	X6	Y6	Z6	X7	Y7	Z7	X8	Y8	Z8	X9	Y9	Z9	X10	Y10	Z10	X11	Y11	Z11	X12	Y12	Z12	X13	Y13	Z13	X14	Y14	Z14	X15	Y15	Z15	X16	Y16	Z16	X17	Y17	Z17	X18	Y18	Z18	X19	Y19	Z19	X20	Y20	Z20	X21	Y21	Z21	X22	Y22	Z22	X23	Y23	Z23	X24	Y24	Z24	X25	Y25	Z25	X26	Y26	Z26	X27	Y27	Z27	X28	Y28	Z28	X29	Y29	Z29	X30	Y30	Z30	X31	Y31	Z31	X32	Y32	Z32	X33	Y33	Z33	

1251	144.996	832.150975875932	1477.567942131779	-960.8386009969709	819.6479348855729	1249.360762340218	-901.120913225183	866.7861552530261	1398.336987349641	-1070.577982553161	693.3908900893259	1448.52702067876	-1054.803363047198	990.0801790427913	1457.785328035562	-986.3720254948845	735.6282023890132	1025.604755040885	-1046.211160432966	981.7715070762671	1038.950882927104	-1003.25612516955	805.8146088581386	1079.397947427705	-872.2974983244072	855.1546890578275	1076.478592270676	-861.0487794251213	719.7008993540925	1098.803749841666	-1022.677739937729	992.8499712458346	1113.817998360337	-959.3445497355627	682.2229970805629	976.4082438103206	-993.8718310459537	754.5763687491935	778.4065257785735	-1030.782583841565	704.6030609102116	715.832419861829	-880.0103014509275	729.5681347631119	553.1889580025663	-805.2190180066858	771.6310940909271	450.3317539971993	-790.3819268210829	729.5434679086474	421.0763823657728	-645.9879425313509	768.7983673436859	302.858236555071	-620.6497901380011	751.4022304962712	261.7290328769847	-501.1990728691367	754.6617067188926	106.5454840519267	-509.3441498904889	732.6264794138669	135.9076524841728	-459.6990612010972	814.2237161727852	312.4640847530691	-471.9011810311396	1036.932514346679	975.4935755471153	-949.7090341670206	965.0959529637506	819.2349857158154	-1104.181407664302	1016.501156371513	699.9934465658978	-1045.503339088526	976.0860243885954	529.8687920297619	-1112.19214816007	916.0142291351567	472.6776433372141	-1173.923270080622	969.4037572096992	339.8122544460697	-1135.485327243644	910.2598648944063	249.416093398784	-1211.676114511414	936.2054385166305	132.5549612694445	-1192.886458290971	944.9403128946554	142.1895716750687	-1345.478025490175	966.7434918594894	92.28583644617208	-1315.466963588453	876.6988092823049	66.40438064907501	-1151.50941838174	
1252	145	833.0207541378437	1476.075248294672	-961.121918284381	820.1650763851537	1248.033892649425	-900.8954664815714	867.5378929226762	1396.78185958147	-1070.704800726348	694.1252241309097	1446.916247500822	-1055.112351971078	991.0308000174507	1456.096491718937	-986.6685667488977	736.2649096855363	1024.950016189868	-1046.437357127407	982.4363699252962	1037.258464103887	-1002.514621662528	805.6605329097957	1078.016584598327	-872.3406431120727	854.9532650017489	1074.742408672904	-860.8151343810507	720.2453245565041	1097.717741845457	-1022.821549589301	993.0486816702563	1112.039635932066	-958.5710376884983	682.5169379692192	975.8154175779716	-994.6835268831786	754.7380568671734	777.7668763800174	-1032.632661066685	704.5869196837042	713.9055997859709	-882.568590584497	729.3783059115473	550.9971385248035	-808.8709117486006	770.8977432205697	448.1798986473373	-792.2972311344373	729.3375609421232	422.4417904876517	-646.9499945107335	768.2844007038233	304.8361759919603	-618.9741057067914	751.12464222748	266.8231649464954	-498.5323100416268	752.628694413506	111.6455419281271	-503.7392983688563	730.9766721554773	142.2144088950349	-454.7230139815955	814.6255448310651	317.5482608200073	-470.3069603615708	1036.661454185514	972.8563968341765	-948.7588796685118	965.0757178937411	816.7486243722055	-1102.847155196772	1015.878497740493	697.5111885969752	-1044.915414130073	975.2815112740589	528.1834021078348	-1111.822132207585	914.9728786140737	470.92656073573	-1173.00599472742	968.2123814993226	338.0731255525019	-1134.027909664764	908.89877515489	247.545267933938	-1209.797189099901	934.7052651481682	130.8931813172008	-1190.498635551181	943.7324813993016	139.9998042583282	-1342.931784119833	965.5966394288774	90.37464402477218	-1312.653509171368	875.1428967227454	65.20865586807278	-1148.983986382645	
1253	145.004	833.9163079066424	1474.433012974369	-961.3759910736259	820.7047391768016	1246.563909040601	-900.6126555208012	868.2696981495305	1395.032502710346	-1070.810126359204	694.8456068598359	1445.121456627161	-1055.388226445312	992.0070723558432	1454.251284155535	-986.9801389663583	736.8840824874493	1024.181288755162	-1046.602986855406	983.1646454265066	1035.428791374541	-1001.695281289327	805.5045636645266	1076.32620378353	-872.2727245954205	854.7384393853102	1072.673448576047	-860.4605991755075	720.7325310457344	1096.501285221185	-1022.795566767459	993.2512066228344	1110.075536349429	-957.6766782952732	682.8092782211231	975.0461565541044	-995.4642920279414	754.9084251371559	776.998669297887	-1034.572679739197	704.5299739051285	711.6428357775158	-885.3835752996657	729.155677833465	548.5219452198668	-812.8420411521956	770.1727022736605	445.8225524073096	-794.4866894365185	729.1543193511908	423.7126576512148	-648.2542142015785	767.8270628891732	306.8106848775751	-617.5758099637621	750.8786847298276	271.9881470972434	-496.2167628564798	750.5791312330825	116.9359649181252	-498.5373012408496	729.2542045268067	148.6790597445374	-450.2136019729332	815.0464129496928	322.637681814346	-468.9520077739046	1036.366118769642	970.0364871605525	-947.7144411732895	965.0898426614488	814.5227854874922	-1101.696400838382	1015.091581577418	695.083963702294	-1044.467411085166	974.4830220054015	526.4019163995285	-1111.449532138673	913.9556327490769	468.9524438644488	-1172.047632894193	966.9792599046175	336.1818988243103	-1132.238678418303	907.4689953676045	245.3806323242995	-1207.407487218669	933.1469315993675	129.0489011474682	-1187.327902896347	942.4265580007618	137.172802568188	-1339.607175169058	964.4240675252048	87.99370988992749	-1308.899010626981	873.5718316469429	64.07486682112379	-1145.461177129421	
1254	145.008	834.8343394976621	1472.640992450408	-961.596351139835	821.2641081876313	1244.948743290912	-900.2767696987959	868.9808137354318	1393.090475097735	-1070.892589504496	695.5549339334237	1443.150775773705	-1055.626793607882	993.0051881116157	1452.252592209039	-987.3062680746331	737.4819093040627	1023.287831735483	-1046.713901158192	983.9488431511764	1033.467446682	-1000.801355140414	805.344098873048	1074.320242899336	-872.0945594889985	854.5075200672824	1070.272557244855	-859.9871332576892	721.158370319979	1095.154042520699	-1022.603048806202	993.4590854462972	1107.92888578291	-956.6668245151615	683.099240831594	974.0845318634563	-996.2149512609885	755.0858042252837	776.0891345078301	-1036.583417829827	704.4284072055423	709.0551878778347	-888.4350962582513	728.8957388623023	545.7810308341491	-817.1036859960533	769.4568127561007	443.2804618688214	-796.9435003052189	728.9870678262611	424.8890581205339	-649.9034255478396	767.4132708827785	308.7802321798039	-616.4766943214426	750.6505503271976	277.2090696196607	-494.283467304715	748.5225524020285	122.3925331557153	-493.7505469932785	727.4738579253986	155.2827846903823	-446.1800207662221	815.4692646241909	327.7325645409286	-467.886125397599	1036.049561967602	967.0523223880234	-946.5843884459296	965.1504566694321	812.5618505528523	-1100.761918069359	1014.161218453286	692.7248397653758	-1044.153666225458	973.696991594382	524.5206935045289	-1111.063535643178	912.9668536701932	466.7615878620778	-1171.054937198105	965.711401817642	334.1492314830591	-1130.148390113365	905.9745006195178	242.9456854426134	-1204.549207284044	931.5399995068925	127.0464255710701	-1183.433674587363	941.0302312060403	133.7604306184221	-1335.560372982557	963.2352435706318	85.19315950136232	-1304.269330667325	871.9972453907679	63.02109766586874	-1141.00736620892	
1255	145.012	835.771423677003	1470.699868971859	-961.778780017287	821.8404924048081	1243.186436207692	-899.8923678130719	869.6706513520301	1390.958040193532	-1070.951454365279	696.2549127111873	1441.012843240899	-1055.823562260766	994.0220421570709	1450.103648054443	-987.6467223382678	738.0548877794516	1022.256917786315	-1046.776137852556	984.7804968606147	1031.381175939404	-999.835903591471	805.1753199821676	1071.995006324315	-871.8069971443222	854.2571061422318	1067.54504759272	-859.3970380870815	721.5194359621458	1093.673547911333	-1022.251216020446	993.6742816873359	1105.603977264238	-955.5476197141405	683.3862751305737	972.9136730709747	-996.9364513503004	755.2695321265176	775.0255847523988	-1038.645288170095	704.2803200736682	706.1572753811593	-891.6996887723728	728.5943367130427	542.7919695478246	-821.62759010147	768.7514587959573	440.5741373038834	-799.6612063951405	728.8280328978489	425.969255510034	-651.8994789085183	767.0291793630178	310.741251908436	-615.6969193631467	750.4267983363541	282.4688853133727	-492.7598427161397	746.4684070956573	127.9895026562182	-489.3880529321441	725.6516495627521	162.0045599141195	-442.6273798106856	815.8779790926902	332.830270765476	-467.1576345341391	1035.715943498574	963.9236702876901	-945.3784807864581	965.2684888606371	810.8574065025523	-1100.067130069587	1013.114057236955	690.4420104577345	-1043.96568958551	972.9293098760656	522.5412522080921	-1110.660396974547	912.007385981582	464.3681777376323	-1170.037376080773	964.4174300121236	331.9933024513492	-1127.795345541459	904.4205215154246	240.2726807436901	-1201.26788049623	929.8963744132192	124.9182423976441	-1178.8804395214	939.5559697194196	129.8294007370822	-1330.84959931991	962.0426351737755	82.03599884797137	-1298.83508148515	870.4318760574043	62.0676277536294	-1135.697156919371	
1256	145.016	836.724020508221	1468.611705066213	-961.9196102025492	822.431259420758	1241.275672082098	-899.4641090460141	870.3387694664623	1388.638397741266	-1070.986661393327	696.9458243707945	1438.716806841853	-1055.974076772903	995.0552107806361	1447.808221512649	-988.0013838372432	738.5998874118784	1021.074364586951	-1046.795616979917	985.6504549860417	1029.178069159532	-998.8016998006399	804.9931612578708	1069.350224498048	-871.4109091529854	853.9830416382827	1064.501070041721	-858.6929684551068	721.8131684503032	1092.055425710333	-1021.751149268105	993.8990739958201	1103.106525079444	-954.3257295528541	683.6700181564122	971.5165232094855	-997.6297805811483	755.4601214982717	773.7961872771141	-1040.739012713764	704.085793837747	702.9670431156601	-895.1513385490365	728.2478022695478	539.5721133763246	-826.3866621869635	768.0585677075602	437.7236946686083	-802.6337378124807	728.6685493022389	426.9499231727967	-654.2431063882157	766.6607991185357	312.6883932950282	-615.2547024627887	750.1946562680761	287.7486443121059	-491.6694437183	744.4260195873634	133.6998234617516	-485.4563311285003	723.804114156162	168.821108756476	-439.5577005990433	816.2574280301602	337.9253702271359	-466.8117795426829	1035.370416092423	960.6715690019931	-944.1070228261523	965.4532337588414	809.3890270958328	-1099.624601891556	1011.981261591906	688.2391170389093	-1043.892260841375	972.1852104103756	520.4708295412441	-1110.24388716143	911.074667777696	461.794480210846	-1169.006810149274	963.1074655728239	329.7392872418076	-1125.224231783868	902.8136075530704	237.4016113919864	-1197.61102397569	928.2298929060407	122.7036643074686	-1173.735982990749	938.0204599297972	125.459429481024	-1325.533895364025	960.8610166005607	78.59591459620734	-1292.670127553969	868.8891130139441	61.23530063160829	-1129.611413882357	
